{"title":"Star.Wars.The.Last.Jedi.2017.CamRip.H264.Clean.Audio","magnet":"magnet:?xt=urn:btih:124617ae1e39e8ce1debd84438e9baa1a4144bcc&dn=Star.Wars.The.Last.Jedi.2017.CamRip.H264.Clean.Audio&tr=udp%3A%2F%2Ftracker.leechers-paradise.org%3A6969&tr=udp%3A%2F%2Fzer0day.ch%3A1337&tr=udp%3A%2F%2Fopen.demonii.com%3A1337&tr=udp%3A%2F%2Ftracker.coppersurfer.tk%3A6969&tr=udp%3A%2F%2Fexodus.desync.com%3A6969","uploader":"LifeLongg","categoryP":"video","categoryS":"movies","size":"1445363319","seeders":"33","leechers":"79","description":"******************************Screenshots:********************\r\n <a href=\"\nhttp://picserver4u.com/0921.html\" rel=\"nofollow\" target=\"_NEW\">\nhttp://picserver4u.com/0921.html</a>\r\n <a href=\"\nhttp://picserver4u.com/0922.html\" rel=\"nofollow\" target=\"_NEW\">\nhttp://picserver4u.com/0922.html</a>\r\n <a href=\"\nhttp://picserver4u.com/0923.html\" rel=\"nofollow\" target=\"_NEW\">\nhttp://picserver4u.com/0923.html</a>\r\n <a href=\"\nhttp://picserver4u.com/0924.html\" rel=\"nofollow\" target=\"_NEW\">\nhttp://picserver4u.com/0924.html</a>\r\n <a href=\"\nhttp://picserver4u.com/0925.html\" rel=\"nofollow\" target=\"_NEW\">\nhttp://picserver4u.com/0925.html</a>\r\n\r\n****************************************************************\r\n\r\nGeneral\r\nComplete name                            : Star.Wars.The.Last.Jedi.2017.CamRip.H264.Clean.Audio\r\nFormat                                   : MPEG-4\r\nFormat profile                           : Base Media\r\nCodec ID                                 : isom (isom/iso2/avc1/mp41)\r\nFile size                                : 1.33 GiB\r\nDuration                                 : 2 h 23 min\r\nOverall bit rate                         : 1 327 kb/s\r\nWriting application                      : Lavf57.56.101\r\n\r\nVideo\r\nID                                       : 1\r\nFormat                                   : AVC\r\nFormat/Info                              : Advanced Video Codec\r\nFormat profile                           : <a href=\"/cdn-cgi/l/email-protection\" class=\"__cf_email__\" data-cfemail=\"b4fcddd3dcf4f887\">[email&#xA0;protected]</a>\r\nFormat settings                          : CABAC / 4 Ref Frames\r\nFormat settings, CABAC                   : Yes\r\nFormat settings, RefFrames               : 4 frames\r\nCodec ID                                 : avc1\r\nCodec ID/Info                            : Advanced Video Coding\r\nDuration                                 : 2 h 23 min\r\nBit rate                                 : 1 200 kb/s\r\nWidth                                    : 720 pixels\r\nHeight                                   : 384 pixels\r\nDisplay aspect ratio                     : 1.85:1\r\nFrame rate mode                          : Constant\r\nFrame rate                               : 23.976 (23976/1000) FPS\r\nColor space                              : YUV\r\nChroma subsampling                       : 4:2:0\r\nBit depth                                : 8 bits\r\nScan type                                : Progressive\r\nBits/(Pixel*Frame)                       : 0.181\r\nStream size                              : 1.20 GiB (90%)\r\n\r\nAudio\r\nID                                       : 2\r\nFormat                                   : AAC\r\nFormat/Info                              : Advanced Audio Codec\r\nFormat profile                           : LC\r\nCodec ID                                 : mp4a-40-2\r\nDuration                                 : 2 h 23 min\r\nSource duration                          : 2 h 23 min\r\nBit rate mode                            : Constant\r\nBit rate                                 : 128 kb/s\r\nChannel(s)                               : 2 channels\r\nChannel positions                        : Front: L R\r\nSampling rate                            : 44.1 kHz\r\nFrame rate                               : 43.066 FPS (1024 SPF)\r\nCompression mode                         : Lossy\r\nStream size                              : 131 MiB (10%)\r\nSource stream size                       : 131 MiB (10%)\r\nDefault                                  : Yes\r\nAlternate group                          : 1","last_updated":"2017-12-19T12:06:29.238Z","parsed":{"xt":"urn:btih:124617ae1e39e8ce1debd84438e9baa1a4144bcc","dn":"Star.Wars.The.Last.Jedi.2017.CamRip.H264.Clean.Audio","tr":["udp://exodus.desync.com:6969","udp://open.demonii.com:1337","udp://tracker.coppersurfer.tk:6969","udp://tracker.leechers-paradise.org:6969","udp://zer0day.ch:1337"],"infoHash":"124617ae1e39e8ce1debd84438e9baa1a4144bcc","infoHashBuffer":{"type":"Buffer","data":[18,70,23,174,30,57,232,206,29,235,216,68,56,233,186,161,164,20,75,204]},"name":"Star.Wars.The.Last.Jedi.2017.CamRip.H264.Clean.Audio","announce":["udp://exodus.desync.com:6969","udp://open.demonii.com:1337","udp://tracker.coppersurfer.tk:6969","udp://tracker.leechers-paradise.org:6969","udp://zer0day.ch:1337"],"urlList":[]}}